# xmcd
#
# Track frame offsets:
#	150
#	20620
#	34260
#	48350
#	66120
#	81495
#	97027
#	109102
#	124922
#	139707
#	153985
#	170605
#
# Disc length: 2543 seconds
#
# Revision: 0
# Processed by: cddbd v1.5.1PL2 Copyright (c) Steve Scherf et al.
# Submitted via: audiograbber 1.82.02
#
DISCID=a509ed0c
DTITLE=Dagmar - Endlich Weihnachten
DYEAR=1993
DGENRE=Country 
TTITLE0=Weihnachten in Deutschland
TTITLE1=Hallo Schneemann, komm zu mir
TTITLE2=Walnüsse, Zimtsterne,Marzipan
TTITLE3=Das Gute gibt es doch
TTITLE4=Bilder aus der Kindheit
TTITLE5=Santa Claus
TTITLE6=Einen ganzen Truck voll Liebe
TTITLE7=Komm endlich heim
TTITLE8=Weihnachtszeit
TTITLE9=Ottokar, der kleine Engel
TTITLE10=Ich wünsch mir einen kleinen Traum
TTITLE11=Kerzenlicht und gute Freunde
EXTD=
EXTT0=
EXTT1=
EXTT2=
EXTT3=
EXTT4=
EXTT5=
EXTT6=
EXTT7=
EXTT8=
EXTT9=
EXTT10=
EXTT11=
PLAYORDER=
